<svg width="18" height="16" viewBox="0 0 18 16" fill="none" xmlns="http://www.w3.org/2000/svg">
<path fill-rule="evenodd" clip-rule="evenodd" d="M1.78647 0.5H0V2H1.78647L2.30023 3.02751L4.24622 9.51415C3.12305 9.64022 2.25 10.5932 2.25 11.75C2.25 12.7675 2.92543 13.6273 3.8524 13.9054C3.78666 14.0483 3.75 14.2074 3.75 14.375C3.75 14.9963 4.25368 15.5 4.875 15.5C5.49632 15.5 6 14.9963 6 14.375C6 14.2435 5.97744 14.1173 5.93599 14H12.814C12.7726 14.1173 12.75 14.2435 12.75 14.375C12.75 14.9963 13.2537 15.5 13.875 15.5C14.4963 15.5 15 14.9963 15 14.375C15 14.2435 14.9774 14.1173 14.936 14H15.75V12.5H4.5C4.08579 12.5 3.75 12.1642 3.75 11.75C3.75 11.3358 4.08578 11 4.49999 11H13.7702C14.8427 11 15.7662 10.243 15.9766 9.19126L17.056 3.79418C17.2417 2.86599 16.5317 2 15.5851 2H3.46353L3.12812 1.32918C2.87403 0.821003 2.35463 0.5 1.78647 0.5ZM5.80802 9.5L4.00802 3.5H15.5851L14.5057 8.89709C14.4356 9.2476 14.1278 9.5 13.7702 9.5H5.80802Z" fill="#2B2D33"/>
</svg>
