<svg width="20" height="20" viewBox="0 0 20 20" fill="none" xmlns="http://www.w3.org/2000/svg">
<path d="M16.9109 1.91075L13.3334 5.48816V3.33334H11.6668V7.50001C11.6668 7.96024 12.0399 8.33334 12.5001 8.33334H16.6668V6.66667H14.512L18.0894 3.08926L16.9109 1.91075Z" fill="#9E9E9E"/>
<path fill-rule="evenodd" clip-rule="evenodd" d="M7.09714 2.98646C6.53928 2.05669 5.25618 1.89873 4.48948 2.66544L2.38804 4.76688C1.93449 5.22043 1.63551 5.87266 1.71389 6.59447C1.8725 8.05512 2.56886 11.4043 5.6152 14.3956C8.63308 17.359 11.9215 18.0915 13.3772 18.2727C14.111 18.3641 14.7805 18.0648 15.2442 17.6011L17.3347 15.5106C18.1014 14.7439 17.9434 13.4608 17.0136 12.9029L14.3201 11.2868C13.6643 10.8934 12.8249 10.9967 12.2841 11.5375L11.4288 12.3928C11.0704 12.218 10.3787 11.7795 9.29965 10.7004C8.22061 9.62137 7.78208 8.9297 7.60728 8.57132L8.46261 7.71598C9.00339 7.17521 9.10673 6.33578 8.71326 5.67998L7.09714 2.98646ZM3.56655 5.94539L5.66799 3.84395L7.2841 6.53747L6.30219 7.51939C6.01953 7.80205 5.74001 8.31801 5.94657 8.91464C6.1467 9.4927 6.68653 10.4443 8.12114 11.8789C9.55575 13.3135 10.5074 13.8534 11.0854 14.0535C11.6821 14.2601 12.198 13.9806 12.4807 13.6979L13.4626 12.716L16.1561 14.3321L14.0657 16.4226C13.9042 16.584 13.7266 16.6367 13.5831 16.6189C12.3525 16.4656 9.45561 15.8308 6.78292 13.2064C4.10403 10.5759 3.50446 7.64521 3.37081 6.41454C3.35574 6.27576 3.40799 6.10395 3.56655 5.94539Z" fill="#9E9E9E"/>
</svg>
