<svg width="24" height="24" viewBox="0 0 24 24" fill="none" xmlns="http://www.w3.org/2000/svg">
<path d="M19.8325 7.825L15.5925 3.585C14.8125 2.805 13.5425 2.805 12.7625 3.585L9.2825 7.055C9.0825 7.255 8.5625 7.475 8.2725 7.475L4.5425 7.515C3.5725 7.525 3.2325 8.095 3.1325 8.345C3.0325 8.595 2.8725 9.245 3.5525 9.935L7.8025 14.185L3.2925 18.695C2.9025 19.085 2.9025 19.715 3.2925 20.105C3.4925 20.305 3.7425 20.395 4.0025 20.395C4.2625 20.395 4.5125 20.295 4.7125 20.105L9.2225 15.595L13.4725 19.845C13.8825 20.255 14.2725 20.365 14.5825 20.365C14.7925 20.365 14.9625 20.315 15.0625 20.275C15.3125 20.175 15.8925 19.835 15.9025 18.855L15.9425 15.125C15.9425 14.835 16.1625 14.315 16.3625 14.115L19.8325 10.645C20.6025 9.865 20.6025 8.605 19.8325 7.825ZM14.9425 12.705C14.3625 13.285 13.9425 14.295 13.9325 15.105L13.9125 17.455L5.9525 9.495L8.3025 9.475C9.1125 9.465 10.1225 9.045 10.7025 8.465L14.1725 4.995L18.4125 9.235L14.9425 12.705Z" fill="#2B2D33"/>
</svg>
