<svg width="20" height="20" viewBox="0 0 20 20" fill="none" xmlns="http://www.w3.org/2000/svg">
<path fill-rule="evenodd" clip-rule="evenodd" d="M12.2331 18.2894L7.5 16.7117L2.76352 18.2906C2.5094 18.3753 2.23005 18.3327 2.01274 18.176C1.79543 18.0194 1.66667 17.7679 1.66667 17.5V10.8333H3.33333L3.33333 16.3438L6.66667 15.2327L6.66667 12.5H8.33333V15.2327L11.6667 16.3438V6.48397L10.6312 6.22511L11.0354 4.60821L12.4667 4.96602L17.2365 3.37609C17.4906 3.29138 17.77 3.334 17.9873 3.49063C18.2046 3.64725 18.3333 3.89879 18.3333 4.16666L18.3333 15.8333C18.3333 16.192 18.1038 16.5105 17.7635 16.6239L12.7635 18.2906C12.6047 18.3435 12.436 18.3467 12.2788 18.3034C12.2634 18.2992 12.2482 18.2945 12.2331 18.2894ZM13.3333 6.43396V16.3438L16.6667 15.2327L16.6667 5.32285L13.3333 6.43396Z" fill="#194FDC"/>
<path d="M5.41667 5.83333C5.8769 5.83333 6.25 5.46023 6.25 4.99999C6.25 4.53976 5.8769 4.16666 5.41667 4.16666C4.95643 4.16666 4.58333 4.53976 4.58333 4.99999C4.58333 5.46023 4.95643 5.83333 5.41667 5.83333Z" fill="#194FDC"/>
<path fill-rule="evenodd" clip-rule="evenodd" d="M4.91667 10.6667C5.21296 10.8889 5.62075 10.8886 5.91704 10.6664L5.91864 10.6652L5.92182 10.6628L5.93177 10.6552L5.96543 10.6293C5.99379 10.6072 6.03375 10.5758 6.08364 10.5355C6.18337 10.4549 6.32325 10.3385 6.48993 10.191C6.82214 9.89682 7.2667 9.47335 7.71364 8.95658C8.57674 7.95861 9.58333 6.45978 9.58333 4.79166C9.58333 2.55569 7.66637 0.833328 5.41667 0.833328C3.16696 0.833328 1.25 2.55569 1.25 4.79166C1.25 6.45978 2.25659 7.95861 3.1197 8.95658C3.56663 9.47335 4.0112 9.89682 4.34341 10.191C4.51009 10.3385 4.64996 10.4549 4.74969 10.5355C4.79959 10.5758 4.83954 10.6072 4.8679 10.6293L4.90157 10.6552L4.91151 10.6628L4.9147 10.6652L4.91584 10.666L4.91667 10.6667ZM5.41667 2.49999C6.84886 2.49999 7.91667 3.57585 7.91667 4.79166C7.91667 5.83187 7.25659 6.93721 6.45303 7.86633C6.08037 8.29722 5.70551 8.65743 5.41667 8.91506C5.12783 8.65743 4.75296 8.29722 4.3803 7.86633C3.57674 6.93721 2.91667 5.83187 2.91667 4.79166C2.91667 3.57585 3.98448 2.49999 5.41667 2.49999Z" fill="#194FDC"/>
<path fill-rule="evenodd" clip-rule="evenodd" d="M6.25 4.99999C6.25 5.46023 5.8769 5.83333 5.41667 5.83333C4.95643 5.83333 4.58333 5.46023 4.58333 4.99999C4.58333 4.53976 4.95643 4.16666 5.41667 4.16666C5.8769 4.16666 6.25 4.53976 6.25 4.99999Z" fill="#194FDC"/>
</svg>
