<svg width="20" height="20" viewBox="0 0 20 20" fill="none" xmlns="http://www.w3.org/2000/svg">
<path fill-rule="evenodd" clip-rule="evenodd" d="M9.41069 1.07741C9.63388 0.85422 9.96402 0.776284 10.2635 0.8761L15.2635 2.54277C15.5375 2.6341 15.7446 2.86079 15.811 3.14187C15.8773 3.42296 15.7934 3.71837 15.5892 3.92259L14.5118 5L16.8392 7.32741C18.3152 8.80344 18.3152 11.1966 16.8392 12.6726C15.3632 14.1486 12.97 14.1486 11.494 12.6726L7.53568 8.71425C6.59547 7.77404 5.07108 7.77404 4.13087 8.71425C3.19065 9.65447 3.19065 11.1789 4.13086 12.1191L6.42209 14.4103C6.74846 14.2541 7.11399 14.1667 7.49994 14.1667C8.88065 14.1667 9.99994 15.286 9.99994 16.6667C9.99994 18.0474 8.88065 19.1667 7.49994 19.1667C6.11923 19.1667 4.99994 18.0474 4.99994 16.6667C4.99994 16.2807 5.0874 15.9152 5.24358 15.5888L2.95235 13.2976C1.36126 11.7065 1.36126 9.12683 2.95236 7.53574C4.54345 5.94465 7.12311 5.94466 8.71419 7.53574L12.6725 11.4941C13.4977 12.3192 14.8355 12.3192 15.6607 11.4941C16.4858 10.6689 16.4858 9.33108 15.6607 8.50592L13.3333 6.17851L12.2559 7.25592C12.0516 7.46015 11.7562 7.54407 11.4751 7.47771C11.1941 7.41135 10.9674 7.20419 10.876 6.93019L9.20937 1.93019C9.10956 1.63075 9.18749 1.30061 9.41069 1.07741ZM11.3176 2.98428L12.0308 5.12398L13.4572 3.69752L11.3176 2.98428ZM7.49994 15.8333C7.0397 15.8333 6.66661 16.2064 6.66661 16.6667C6.66661 17.1269 7.0397 17.5 7.49994 17.5C7.96018 17.5 8.33327 17.1269 8.33327 16.6667C8.33327 16.2064 7.96018 15.8333 7.49994 15.8333Z" fill="#9E9E9E"/>
</svg>
