<svg width="20" height="20" viewBox="0 0 20 20" fill="none" xmlns="http://www.w3.org/2000/svg">
<path d="M8.0865 2.04727C8.69313 1.796 9.34331 1.66667 9.99992 1.66667C10.6565 1.66667 11.3067 1.796 11.9133 2.04727C12.52 2.29855 13.0712 2.66685 13.5355 3.13114C13.9997 3.59543 14.368 4.14663 14.6193 4.75326C14.8706 5.35988 14.9999 6.01006 14.9999 6.66667C15.5471 6.66667 16.0889 6.77445 16.5944 6.98384C17.1 7.19324 17.5593 7.50015 17.9462 7.88706C18.3331 8.27397 18.64 8.7333 18.8494 9.23882C19.0588 9.74435 19.1666 10.2862 19.1666 10.8333C19.1666 11.3805 19.0588 11.9223 18.8494 12.4279C18.64 12.9334 18.3331 13.3927 17.9462 13.7796C17.5593 14.1665 17.1 14.4734 16.5944 14.6828C16.0889 14.8922 15.5471 15 14.9999 15V13.3333C15.3282 13.3333 15.6533 13.2687 15.9566 13.143C16.2599 13.0174 16.5355 12.8333 16.7677 12.6011C16.9998 12.369 17.184 12.0934 17.3096 11.79C17.4353 11.4867 17.4999 11.1616 17.4999 10.8333C17.4999 10.505 17.4353 10.1799 17.3096 9.87663C17.184 9.57332 16.9998 9.29772 16.7677 9.06557C16.5355 8.83343 16.2599 8.64928 15.9566 8.52364C15.6533 8.398 15.3282 8.33334 14.9999 8.33334C14.7587 8.33334 14.5193 8.36824 14.2889 8.43659C14.0035 8.52126 13.6945 8.44723 13.4785 8.24239C13.2624 8.03754 13.1721 7.73299 13.2415 7.44347C13.3023 7.18962 13.3333 6.92892 13.3333 6.66667C13.3333 6.22893 13.247 5.79548 13.0795 5.39106C12.912 4.98664 12.6665 4.61918 12.3569 4.30965C12.0474 4.00012 11.6799 3.75459 11.2755 3.58707C10.8711 3.41956 10.4377 3.33334 9.99992 3.33334C9.56218 3.33334 9.12873 3.41956 8.72431 3.58707C8.31989 3.75459 7.95242 4.00012 7.6429 4.30965C7.33337 4.61918 7.08784 4.98664 6.92032 5.39106C6.7528 5.79548 6.66658 6.22893 6.66658 6.66667C6.66658 7.12691 6.29349 7.5 5.83325 7.5H5.41659C5.03356 7.5 4.65429 7.57545 4.30043 7.72202C3.94656 7.8686 3.62503 8.08344 3.35419 8.35428C3.08335 8.62511 2.86851 8.94665 2.72194 9.30051C2.57536 9.65438 2.49992 10.0336 2.49992 10.4167C2.49992 10.7997 2.57536 11.179 2.72194 11.5328C2.86851 11.8867 3.08335 12.2082 3.35419 12.4791C3.62503 12.7499 3.94656 12.9647 4.30042 13.1113C4.52519 13.2044 4.7602 13.2688 4.99992 13.3034V14.981C4.54087 14.9391 4.08996 14.8281 3.66262 14.6511C3.10654 14.4208 2.60128 14.0832 2.17568 13.6576C1.75008 13.232 1.41247 12.7267 1.18214 12.1706C0.951803 11.6146 0.833252 11.0186 0.833252 10.4167C0.833252 9.81478 0.951804 9.21878 1.18214 8.66271C1.41247 8.10663 1.75008 7.60137 2.17568 7.17577C2.60128 6.75016 3.10654 6.41256 3.66262 6.18222C4.11095 5.99652 4.58523 5.88348 5.06762 5.84664C5.12985 5.47234 5.23463 5.10546 5.38052 4.75325C5.63179 4.14663 6.00009 3.59543 6.46438 3.13114C6.92868 2.66684 7.47987 2.29855 8.0865 2.04727Z" fill="#529EF7"/>
<path d="M10.8335 11.6667H9.16682V13.9731L7.16952 12.82L6.33618 14.2634L8.33378 15.4167L6.33618 16.57L7.16951 18.0134L9.16682 16.8602V19.1667H10.8335V16.8599L12.8314 18.0134L13.6647 16.57L11.6671 15.4167L13.6647 14.2634L12.8314 12.82L10.8335 13.9735V11.6667Z" fill="#529EF7"/>
</svg>
